<svg xmlns="http://www.w3.org/2000/svg" version="1.1" xmlns:xlink="http://www.w3.org/1999/xlink" xmlns:svgjs="http://svgjs.com/svgjs" width="111" height="172"><svg width="111" height="172" viewBox="0 0 111 172" fill="none" xmlns="http://www.w3.org/2000/svg">
<path d="M17.28 118.44V35.46C17.28 30.66 12 28.26 1.44 28.26V23.22C17.04 15.06 30.96 7.38 43.2 0.18L46.08 5.94C45.6 6.18 44.94 6.66 44.1 7.38C43.26 7.98 42.18 9.96 40.86 13.32C39.54 16.56 38.88 20.58 38.88 25.38V119.7C38.88 129.06 38.34 137.76 37.26 145.8C36.18 153.96 34.86 160.2 33.3 164.52C31.74 168.96 30.12 171.18 28.44 171.18C25.44 171.18 21.54 170.28 16.74 168.48C12.06 166.68 8.1 164.88 4.86 163.08L0 160.38V154.98H6.12C10.32 154.98 13.2 152.22 14.76 146.7C16.44 141.18 17.28 131.76 17.28 118.44Z" fill="black"></path>
<path d="M56.8308 111.6V33.48C56.8308 29.04 56.3508 25.86 55.3908 23.94C54.4308 22.02 52.4508 21.06 49.4508 21.06V15.48L86.3508 0L89.2308 5.76C86.5908 5.76 84.0708 7.32 81.6708 10.44C79.5108 13.44 78.4308 18 78.4308 24.12V97.74C78.4308 107.34 79.2708 113.1 80.9508 115.02C83.8308 118.62 86.6508 120.78 89.4108 121.5C95.7708 122.94 102.791 123.66 110.471 123.66V128.7C94.5108 135.42 85.3908 138.78 83.1108 138.78C80.9508 138.78 77.9508 137.82 74.1108 135.9C70.2708 133.86 66.4308 130.62 62.5908 126.18C58.7508 121.74 56.8308 116.88 56.8308 111.6Z" fill="black"></path>
</svg><style>@media (prefers-color-scheme: light) { :root { filter: none; } }
</style></svg>